<?xml version="1.0" encoding="UTF-8" standalone="no"?>
<svg
   width="512"
   height="512"
   clip-rule="evenodd"
   version="1.1"
   id="svg12"
   sodipodi:docname="medium.svg"
   inkscape:version="1.1 (c68e22c387, 2021-05-23)"
   xmlns:inkscape="http://www.inkscape.org/namespaces/inkscape"
   xmlns:sodipodi="http://sodipodi.sourceforge.net/DTD/sodipodi-0.dtd"
   xmlns="http://www.w3.org/2000/svg"
   xmlns:svg="http://www.w3.org/2000/svg">
  <defs
     id="defs16" />
  <sodipodi:namedview
     id="namedview14"
     pagecolor="#ffffff"
     bordercolor="#cccccc"
     borderopacity="1"
     inkscape:pageshadow="0"
     inkscape:pageopacity="1"
     inkscape:pagecheckerboard="0"
     showgrid="false"
     inkscape:zoom="1.5214844"
     inkscape:cx="255.67137"
     inkscape:cy="255.67137"
     inkscape:window-width="1920"
     inkscape:window-height="1120"
     inkscape:window-x="-11"
     inkscape:window-y="-11"
     inkscape:window-maximized="1"
     inkscape:current-layer="svg12" />
  <g
     id="g10"
     style="fill:#0047b5;fill-opacity:1">
    <title
       id="title7">Layer 1</title>
    <path
       fill="#ffffff"
       id="svg_2"
       d="m511.2,256c0,-140.845 -114.349,-255.194 -255.194,-255.194l-0.012,0c-140.845,0 -255.194,114.349 -255.194,255.194c0,140.845 114.349,255.194 255.194,255.194l0.012,0c140.845,0 255.194,-114.349 255.194,-255.194zm-229.576,0.002c0,62.731 -50.508,113.584 -112.81,113.584c-62.302,0 -112.814,-50.865 -112.814,-113.584c0,-62.72 50.508,-113.588 112.814,-113.588c62.306,0 112.81,50.857 112.81,113.588zm123.757,0c0,59.048 -25.255,106.934 -56.407,106.934c-31.153,0 -56.407,-47.886 -56.407,-106.934c0,-59.048 25.25,-106.935 56.403,-106.935c31.153,0 56.407,47.872 56.407,106.935l0.004,0zm50.619,0c0,52.892 -8.881,95.796 -19.838,95.796c-10.958,0 -19.835,-42.892 -19.835,-95.796c0,-52.904 8.88,-95.796 19.835,-95.796c10.954,0 19.838,42.888 19.838,95.796z"
       style="fill:#0047b5;fill-opacity:1" />
  </g>
</svg>
